<?xml version="1.0" encoding="utf-8"?>
<!-- Generator: Adobe Illustrator 25.2.3, SVG Export Plug-In . SVG Version: 6.00 Build 0)  -->
<svg version="1.1" id="Capa_1" xmlns="http://www.w3.org/2000/svg" xmlns:xlink="http://www.w3.org/1999/xlink" x="0px" y="0px"
	 viewBox="0 0 841.89 619.55" style="enable-background:new 0 0 841.89 619.55;" xml:space="preserve">
<style type="text/css">
	.st0{fill:#EFE529;stroke:#FFFFFF;stroke-miterlimit:10;}
	.st1{fill:#FFFFFF;}
	.st2{fill:#56AF31;stroke:#FFFFFF;stroke-miterlimit:10;}
	.st3{fill:#A54894;stroke:#FFFFFF;stroke-miterlimit:10;}
</style>
<rect x="80.5" y="121.5" class="st0" width="250" height="299"/>
<g>
	<g>
		<path class="st1" d="M138.85,386.78c21-11.46,39.85-26.65,56.17-44.12c16.45-17.61,30.44-37.48,42.16-58.52
			c5.88-10.55,11.02-21.44,16.03-32.42c5.14-11.27,10.53-22.79,18.73-32.21c16.31-18.72,41.46-23.99,63.83-32.03
			c20.05-7.21,41.99-19.42,49.51-40.69c0.86-2.43,1.47-4.94,1.85-7.49c0.2-1.33-0.33-2.69-1.75-3.08c-1.18-0.32-2.87,0.4-3.08,1.75
			c-3.25,21.66-23.78,35.16-42.61,42.71c-22.21,8.9-47.13,13.09-65.55,29.48c-9.33,8.3-15.78,19.23-21.19,30.35
			c-5.34,10.98-10.08,22.23-15.75,33.06c-11.01,21.04-24.15,41.04-39.77,58.95c-15.48,17.75-33.37,33.45-53.57,45.61
			c-2.48,1.49-5,2.93-7.54,4.32C133.5,384.01,136.02,388.33,138.85,386.78L138.85,386.78z"/>
	</g>
</g>
<g>
	<g>
		<path class="st1" d="M633.35,553.17c-34.39-27.66-67.11-57.38-97.93-88.97c-30.85-31.63-59.83-65.11-86.65-100.22
			c-26.79-35.07-51.47-71.75-73.84-109.8c-22.06-37.52-42.61-80.11-82.66-101.61c-8.95-4.81-18.65-8.37-28.7-9.96
			c-12.13-1.92-24.36-1.11-36.55-0.5c-19.14,0.96-41.4,0.94-56.38-13.09c-3.15-2.95-5.64-6.38-7.48-10.28
			c-1.38-2.91-5.69-0.37-4.32,2.52c7.98,16.86,27.16,24.15,44.66,25.83c11.88,1.14,23.85-0.13,35.73-0.56
			c11.74-0.43,23.36,0.13,34.65,3.64c43.46,13.55,67.63,55.88,88.83,92.87c22.03,38.44,46.12,75.62,72.52,111.21
			c26.34,35.51,54.8,69.45,85.19,101.56c30.43,32.15,62.8,62.46,96.89,90.7c4.15,3.43,8.32,6.83,12.51,10.21
			C632.3,558.7,635.86,555.19,633.35,553.17L633.35,553.17z"/>
	</g>
</g>
<rect x="390.5" y="98.5" class="st2" width="361" height="295"/>
<circle class="st0" cx="390.5" cy="427.5" r="110"/>
<circle class="st3" cx="341.5" cy="215.5" r="70"/>
</svg>
